<?xml version="1.0" encoding="utf-8"?>
<!-- Generator: Adobe Illustrator 19.0.1, SVG Export Plug-In . SVG Version: 6.00 Build 0)  -->
<svg version="1.1" xmlns="http://www.w3.org/2000/svg" xmlns:xlink="http://www.w3.org/1999/xlink" x="0px" y="0px"
	 viewBox="0 0 24 24" style="enable-background:new 0 0 24 24;" xml:space="preserve">
<style type="text/css">
	.st0{display:none;}
	.st1{display:inline;fill:#FFFFFF;}
	.st2{display:inline;}
	.st3{fill:#D1D3D4;}
	.st4{display:inline;fill:none;stroke:#D1D3D4;stroke-width:0.25;stroke-miterlimit:10;}
	.st5{fill:#FFFFFF;}
	.st6{fill:#221F1F;}
</style>
<g id="White_-_TURN_OFF" class="st0">
	<rect x="-18" y="-18" class="st1" width="60" height="60"/>
</g>
<g id="Grid_-_TURN_OFF" class="st0">
	<g class="st2">
		<path class="st3" d="M23.7744007,0.20508v23.5693207H0.20508V0.20508H23.7744007 M24.0244007-0.04492H-0.04492v24.0693207
			h24.0693207V-0.04492L24.0244007-0.04492z"/>
	</g>
	<line class="st4" x1="4" y1="23.8876991" x2="4" y2="0.1123"/>
	<line class="st4" x1="8" y1="23.8876991" x2="8" y2="0.1123"/>
	<line class="st4" x1="12" y1="23.8876991" x2="12" y2="0.1123"/>
	<line class="st4" x1="16" y1="23.8876991" x2="16" y2="0.1123"/>
	<line class="st4" x1="20" y1="23.8876991" x2="20" y2="0.1123"/>
	<line class="st4" x1="23.8876991" y1="20" x2="0.1123" y2="20"/>
	<line class="st4" x1="23.8876991" y1="16" x2="0.1123" y2="16"/>
	<line class="st4" x1="23.8876991" y1="12" x2="0.1123" y2="12"/>
	<line class="st4" x1="23.8876991" y1="8" x2="0.1123" y2="8"/>
	<line class="st4" x1="23.8876991" y1="4" x2="0.1123" y2="4"/>
</g>
<g id="Title_-_TURN_OFF" class="st0">
	<rect x="-19.7084999" y="38.8280983" style="display:inline;fill:none;" width="63.4165001" height="7.5907998"/>
	<text transform="matrix(1 0 0 1 4.7519531 44.0288048)" class="st2" style="font-family:'Metric-Regular'; font-size:8px;">Help</text>
</g>
<g id="White_Icon" class="st0">
	<g class="st2">
		<path class="st5" d="M12.9954615,18.0243587h-1.9919186v-2.8603954c0-1.56495,0.9979515-2.9586954,2.4271526-3.3886509
			c2.174777-0.6535492,3.6152334-2.5443773,3.5850554-4.7050114c-0.0369511-2.6683741-2.3478746-5.0410776-4.9452362-5.0775495
			C10.7020664,1.9767067,9.4123983,2.4897552,8.441637,3.4468122C7.5021491,4.3742394,6.9837523,5.6050458,6.9837523,6.9127402
			H4.9918337c0-1.8450141,0.7284446-3.5797262,2.051178-4.8844929c1.352911-1.3339379,3.166852-2.0541658,5.0546923-2.0274143
			c3.6935148,0.0515509,6.8574772,3.2767456,6.9099655,7.0421786c0.0428257,3.0588894-1.9685135,5.7272635-5.0031023,6.6405582
			c-0.584528,0.1750898-1.0091057,0.7985601-1.0091057,1.4803934V18.0243587z"/>
		<circle class="st5" cx="11.9997511" cy="22.0081959" r="1.9921675"/>
	</g>
</g>
<g id="Black_Icon">
	<g>
		<path class="st6" d="M12.9954615,18.0243587h-1.9919186v-2.8603954c0-1.56495,0.9979515-2.9586954,2.4271526-3.3886509
			c2.174777-0.6535492,3.6152334-2.5443773,3.5850554-4.7050114c-0.0369511-2.6683741-2.3478746-5.0410776-4.9452362-5.0775495
			C10.7020664,1.9767067,9.4123983,2.4897552,8.441637,3.4468122C7.5021491,4.3742394,6.9837523,5.6050458,6.9837523,6.9127402
			H4.9918337c0-1.8450141,0.7284446-3.5797262,2.051178-4.8844929c1.352911-1.3339379,3.166852-2.0541658,5.0546923-2.0274143
			c3.6935148,0.0515509,6.8574772,3.2767456,6.9099655,7.0421786c0.0428257,3.0588894-1.9685135,5.7272635-5.0031023,6.6405582
			c-0.584528,0.1750898-1.0091057,0.7985601-1.0091057,1.4803934V18.0243587z"/>
		<circle class="st6" cx="11.9997511" cy="22.0081959" r="1.9921675"/>
	</g>
</g>
</svg>
