<?xml version="1.0" encoding="utf-8"?>
<!-- Generator: Adobe Illustrator 19.1.0, SVG Export Plug-In . SVG Version: 6.00 Build 0)  -->
<svg version="1.1" xmlns="http://www.w3.org/2000/svg" xmlns:xlink="http://www.w3.org/1999/xlink" x="0px" y="0px"
	 viewBox="0 0 24 24" style="enable-background:new 0 0 24 24;" xml:space="preserve">
<style type="text/css">
	.st0{display:none;}
	.st1{display:inline;fill:#02D35F;}
	.st2{display:inline;}
	.st3{fill:#02D35F;}
	.st4{display:inline;fill:none;stroke:#02D35F;stroke-width:0.25;stroke-miterlimit:10;}
	.st5{fill:#02D35F;}
</style>
<g id="White_-_TURN_OFF" class="st0">
	<rect x="-18" y="-18" class="st1" width="60" height="60"/>
</g>
<g id="Grid_-_TURN_OFF" class="st0">
	<g class="st2">
		<path class="st3" d="M23.7744007,0.20508v23.5693207H0.20508V0.20508H23.7744007 M24.0244007-0.04492H-0.04492v24.0693207
			h24.0693207V-0.04492L24.0244007-0.04492z"/>
	</g>
	<line class="st4" x1="4" y1="23.8876991" x2="4" y2="0.1123"/>
	<line class="st4" x1="8" y1="23.8876991" x2="8" y2="0.1123"/>
	<line class="st4" x1="12" y1="23.8876991" x2="12" y2="0.1123"/>
	<line class="st4" x1="16" y1="23.8876991" x2="16" y2="0.1123"/>
	<line class="st4" x1="20" y1="23.8876991" x2="20" y2="0.1123"/>
	<line class="st4" x1="23.8876991" y1="20" x2="0.1123" y2="20"/>
	<line class="st4" x1="23.8876991" y1="16" x2="0.1123" y2="16"/>
	<line class="st4" x1="23.8876991" y1="12" x2="0.1123" y2="12"/>
	<line class="st4" x1="23.8876991" y1="8" x2="0.1123" y2="8"/>
	<line class="st4" x1="23.8876991" y1="4" x2="0.1123" y2="4"/>
</g>
<g id="Title_-_TURN_OFF" class="st0">
	<rect x="-19.7084999" y="38.8280983" style="display:inline;fill:none;" width="63.4165001" height="7.5907998"/>
	<text transform="matrix(1 0 0 1 -8.2236328 44.0288048)" class="st2"><tspan x="0" y="0" style="font-family:'Metric-Regular'; font-size:8px;">User s</tspan><tspan x="19.0800781" y="0" style="font-family:'Metric-Regular'; font-size:8px;">e</tspan><tspan x="22.6401367" y="0" style="font-family:'Metric-Regular'; font-size:8px;">ttings</tspan></text>
</g>
<g id="White_Icon">
	<g>
		<path class="st5" d="M24,19.5v-2h-1.9022999c-0.0830994-0.2959003-0.1993008-0.5741997-0.3477001-0.8358994l1.3456993-1.3457003
			l-1.4140987-1.4141006L20.3358994,15.25c-0.2616997-0.1484003-0.539999-0.2645998-0.8358994-0.3477001V13h-2v1.9022999
			c-0.2959003,0.0831003-0.5741997,0.1992998-0.8358994,0.3477001l-1.3457003-1.3457003l-1.4141006,1.4141006L15.25,16.6641006
			c-0.1484003,0.2616997-0.2645998,0.539999-0.3477001,0.8358994H13v2h1.9022999
			c0.0831003,0.2959003,0.1992998,0.5741997,0.3477001,0.8358994l-1.3457003,1.3457012l1.4141006,1.4140987L16.6641006,21.75
			c0.2616997,0.1483994,0.539999,0.2646008,0.8358994,0.3477001V24h2v-1.9022999
			c0.2959003-0.0830994,0.5741997-0.1993008,0.8358994-0.3477001l1.3457012,1.3456993l1.4140987-1.4140987L21.75,20.3358994
			c0.1483994-0.2616997,0.2646008-0.539999,0.3477001-0.8358994H24z M18.5,20.25c-0.9647999,0-1.75-0.7852001-1.75-1.75
			s0.7852001-1.75,1.75-1.75s1.75,0.7852001,1.75,1.75S19.4647999,20.25,18.5,20.25z"/>
		<path class="st5" d="M2,19c0-3.8593998,3.1401-7,7-7c1.6104002,0,3.1230001,0.5307999,4.3739996,1.5352001l1.2520008-1.5601006
			c-0.6114006-0.4906998-1.2852001-0.8944998-1.9971008-1.2079992C14.0663996,9.6698999,15,7.9443002,15,6
			c0-3.3085899-2.6913996-6-6-6S3,2.6914101,3,6c0,1.9453001,0.9345701,3.6724005,2.3740001,4.7690001
			C2.2133801,12.1669998,0,15.3281002,0,19v5h13v-2H2V19z M5,6c0-2.20557,1.7944002-4,4-4s4,1.79443,4,4
			c0,2.2055998-1.7944002,4-4,4S5,8.2055998,5,6z"/>
	</g>
</g>
<g id="Black_Icon" class="st0">
	<g class="st2">
		<path d="M24,19.5v-2h-1.9022999c-0.0830994-0.2959003-0.1993008-0.5741997-0.3477001-0.8358994l1.3456993-1.3457003
			l-1.4140987-1.4141006L20.3358994,15.25c-0.2616997-0.1484003-0.539999-0.2645998-0.8358994-0.3477001V13h-2v1.9022999
			c-0.2959003,0.0831003-0.5741997,0.1992998-0.8358994,0.3477001l-1.3457003-1.3457003l-1.4141006,1.4141006L15.25,16.6641006
			c-0.1484003,0.2616997-0.2645998,0.539999-0.3477001,0.8358994H13v2h1.9022999
			c0.0831003,0.2959003,0.1992998,0.5741997,0.3477001,0.8358994l-1.3457003,1.3457012l1.4141006,1.4140987L16.6641006,21.75
			c0.2616997,0.1483994,0.539999,0.2646008,0.8358994,0.3477001V24h2v-1.9022999
			c0.2959003-0.0830994,0.5741997-0.1993008,0.8358994-0.3477001l1.3457012,1.3456993l1.4140987-1.4140987L21.75,20.3358994
			c0.1483994-0.2616997,0.2646008-0.539999,0.3477001-0.8358994H24z M18.5,20.25c-0.9647999,0-1.75-0.7852001-1.75-1.75
			s0.7852001-1.75,1.75-1.75s1.75,0.7852001,1.75,1.75S19.4647999,20.25,18.5,20.25z"/>
		<path d="M2,19c0-3.8593998,3.1401-7,7-7c1.6104002,0,3.1230001,0.5307999,4.3739996,1.5352001l1.2520008-1.5601006
			c-0.6114006-0.4906998-1.2852001-0.8944998-1.9971008-1.2079992C14.0663996,9.6698999,15,7.9443002,15,6
			c0-3.3085899-2.6913996-6-6-6S3,2.6914101,3,6c0,1.9453001,0.9345701,3.6724005,2.3740001,4.7690001
			C2.2133801,12.1669998,0,15.3281002,0,19v5h13v-2H2V19z M5,6c0-2.20557,1.7944002-4,4-4s4,1.79443,4,4
			c0,2.2055998-1.7944002,4-4,4S5,8.2055998,5,6z"/>
	</g>
</g>
</svg>
