<?xml version="1.0" encoding="utf-8"?>
<!-- Generator: Adobe Illustrator 19.0.1, SVG Export Plug-In . SVG Version: 6.00 Build 0)  -->
<svg version="1.1" xmlns="http://www.w3.org/2000/svg" xmlns:xlink="http://www.w3.org/1999/xlink" x="0px" y="0px"
	 viewBox="0 0 24 24" style="enable-background:new 0 0 24 24;" xml:space="preserve">
<style type="text/css">
	.st0{display:none;}
	.st1{display:inline;fill:#FFFFFF;}
	.st2{display:inline;}
	.st3{fill:#D1D3D4;}
	.st4{display:inline;fill:none;stroke:#D1D3D4;stroke-width:0.25;stroke-miterlimit:10;}
</style>
<g id="White_-_TURN_OFF" class="st0">
	<rect x="-18" y="-18" class="st1" width="60" height="60"/>
</g>
<g id="Grid_-_TURN_OFF" class="st0">
	<g class="st2">
		<path class="st3" d="M23.7744007,0.20508v23.5693207H0.20508V0.20508H23.7744007 M24.0244007-0.04492H-0.04492v24.0693207
			h24.0693207V-0.04492L24.0244007-0.04492z"/>
	</g>
	<line class="st4" x1="4" y1="23.8876991" x2="4" y2="0.1123"/>
	<line class="st4" x1="8" y1="23.8876991" x2="8" y2="0.1123"/>
	<line class="st4" x1="12" y1="23.8876991" x2="12" y2="0.1123"/>
	<line class="st4" x1="16" y1="23.8876991" x2="16" y2="0.1123"/>
	<line class="st4" x1="20" y1="23.8876991" x2="20" y2="0.1123"/>
	<line class="st4" x1="23.8876991" y1="20" x2="0.1123" y2="20"/>
	<line class="st4" x1="23.8876991" y1="16" x2="0.1123" y2="16"/>
	<line class="st4" x1="23.8876991" y1="12" x2="0.1123" y2="12"/>
	<line class="st4" x1="23.8876991" y1="8" x2="0.1123" y2="8"/>
	<line class="st4" x1="23.8876991" y1="4" x2="0.1123" y2="4"/>
</g>
<g id="Title_-_TURN_OFF" class="st0">
	<rect x="-19.7084999" y="38.8280983" style="display:inline;fill:none;" width="63.4165001" height="7.5907998"/>
	<text transform="matrix(1 0 0 1 4.0639648 44.0288048)" class="st2"><tspan x="0" y="0" style="font-family:'Metric-Regular'; font-size:8px;">Fil</tspan><tspan x="7.2236328" y="0" style="font-family:'Metric-Regular'; font-size:8px;">t</tspan><tspan x="9.7036133" y="0" style="font-family:'Metric-Regular'; font-size:8px;">er</tspan></text>
</g>
<g id="White_Icon" class="st0">
	<path class="st1" d="M8.5,23.4883003V12.3622999l-8-10V0.51172h23v1.85058l-8,10v8.3261995L8.5,23.4883003z M3.18066,2.5117199
		L10.5,11.6611004v8.8740997l3-1.200201v-7.6738987l7.3192997-9.1493807H3.18066z"/>
</g>
<g id="Black_Icon">
	<path d="M8.347826,23.9755611V12.3658228L0,1.93104V0h24v1.93104l-8.347826,10.434783v8.6882086L8.347826,23.9755611z
		 M2.7972105,2.0869565l7.6375723,9.5471783v9.2599306l3.130434-1.2523823v-8.0075483l7.6375303-9.5471783H2.7972105z"/>
</g>
</svg>
