<?xml version="1.0" encoding="utf-8"?>
<!-- Generator: Adobe Illustrator 19.0.1, SVG Export Plug-In . SVG Version: 6.00 Build 0)  -->
<svg version="1.1" xmlns="http://www.w3.org/2000/svg" xmlns:xlink="http://www.w3.org/1999/xlink" x="0px" y="0px"
	 viewBox="0 0 24 24" style="enable-background:new 0 0 24 24;" xml:space="preserve">
<style type="text/css">
	.st0{display:none;}
	.st1{display:inline;fill:#02D35F;}
	.st2{display:inline;}
	.st3{fill:#02D35F;}
	.st4{display:inline;fill:none;stroke:#02D35F;stroke-width:0.25;stroke-miterlimit:10;}
	.st5{fill:#02D35F;}
</style>
<g id="White_-_TURN_OFF" class="st0">
	<rect x="-18" y="-18" class="st1" width="60" height="60"/>
</g>
<g id="Grid_-_TURN_OFF" class="st0">
	<g class="st2">
		<path class="st3" d="M23.7744007,0.20508v23.5693207H0.20508V0.20508H23.7744007 M24.0244007-0.04492H-0.04492v24.0693207
			h24.0693207V-0.04492L24.0244007-0.04492z"/>
	</g>
	<line class="st4" x1="4" y1="23.8876991" x2="4" y2="0.1123"/>
	<line class="st4" x1="8" y1="23.8876991" x2="8" y2="0.1123"/>
	<line class="st4" x1="12" y1="23.8876991" x2="12" y2="0.1123"/>
	<line class="st4" x1="16" y1="23.8876991" x2="16" y2="0.1123"/>
	<line class="st4" x1="20" y1="23.8876991" x2="20" y2="0.1123"/>
	<line class="st4" x1="23.8876991" y1="20" x2="0.1123" y2="20"/>
	<line class="st4" x1="23.8876991" y1="16" x2="0.1123" y2="16"/>
	<line class="st4" x1="23.8876991" y1="12" x2="0.1123" y2="12"/>
	<line class="st4" x1="23.8876991" y1="8" x2="0.1123" y2="8"/>
	<line class="st4" x1="23.8876991" y1="4" x2="0.1123" y2="4"/>
</g>
<g id="Title_-_TURN_OFF" class="st0">
	<rect x="-19.7084999" y="38.8280983" style="display:inline;fill:none;" width="63.4165001" height="7.5907998"/>
	<text transform="matrix(1 0 0 1 -5.8598633 44.0288048)" class="st2"><tspan x="0" y="0" style="font-family:'Metric-Regular'; font-size:8px;">N</tspan><tspan x="4.9838867" y="0" style="font-family:'Metric-Regular'; font-size:8px;">o</tspan><tspan x="8.7519531" y="0" style="font-family:'Metric-Regular'; font-size:8px;">tifi</tspan><tspan x="16.9511719" y="0" style="font-family:'Metric-Regular'; font-size:8px;">c</tspan><tspan x="20.2070312" y="0" style="font-family:'Metric-Regular'; font-size:8px;">a</tspan><tspan x="23.7670898" y="0" style="font-family:'Metric-Regular'; font-size:8px;">tion</tspan></text>
</g>
<g id="White_Icon">
	<path class="st5" d="M12,24c-2.2061005,0-4-1.7938995-4-4H0v-2h3V9c0-4.9624,4.0370998-9,9-9s9,4.0376,9,9v9h3v2h-8
		C16,22.2061005,14.2061005,24,12,24z M10,20c0,1.1025009,0.8975,2,2,2s2-0.8974991,2-2H10z M5,18h14V9c0-3.8599-3.1406002-7-7-7
		S5,5.1401,5,9V18z"/>
</g>
<g id="Black_Icon" class="st0">
	<path class="st2" d="M12,24c-2.2061005,0-4-1.7938995-4-4H0v-2h3V9c0-4.9624,4.0370998-9,9-9s9,4.0376,9,9v9h3v2h-8
		C16,22.2061005,14.2061005,24,12,24z M10,20c0,1.1025009,0.8975,2,2,2s2-0.8974991,2-2H10z M5,18h14V9c0-3.8599-3.1406002-7-7-7
		S5,5.1401,5,9V18z"/>
</g>
</svg>
