<?xml version="1.0" encoding="utf-8"?>
<!-- Generator: Adobe Illustrator 19.1.0, SVG Export Plug-In . SVG Version: 6.00 Build 0)  -->
<svg version="1.1" id="Layer_1" xmlns="http://www.w3.org/2000/svg" xmlns:xlink="http://www.w3.org/1999/xlink" x="0px" y="0px"
	 viewBox="0 0 30 30" style="enable-background:new 0 0 30 30;" xml:space="preserve">
<style type="text/css">
	.st0{fill:#666666;}
	.st1{fill:#CCCCCC;}
	.st2{fill:#EDEDED;}
	.st3{fill:#FF454F;}
	.st4{fill:#FFD042;}
	.st5{fill:#02D35F;}
</style>
<path class="st1" d="M15,5c5.5,0,10,4.5,10,10s-4.5,10-10,10S5,20.5,5,15S9.5,5,15,5 M15,3C8.4,3,3,8.4,3,15s5.4,12,12,12
	s12-5.4,12-12S21.6,3,15,3L15,3z M15.8,17c0-0.1,0.1-0.5,0.3-0.6c1.8-0.5,3-2.2,3-3.8c0-2-1.9-3.9-4-3.9c-1.1,0-2.2,1.1-3,1.9
	C11.3,11.4,11,13,11,14h2c0-1,0.2-1.6,0.5-2c0.4-0.4,1-1.1,1.6-1.1c1,0,2,0.7,2,1.7c0,0.8-0.7,1.4-1.5,1.6c-0.9,0.2-1.6,1-1.6,2V19
	h1.8L15.8,17z M14.9,19.3c-0.6,0-1,0.4-1,1c0,0.6,0.4,1,1,1c0.6,0,1-0.4,1-1C15.9,19.7,15.4,19.3,14.9,19.3z"/>
</svg>
