<?xml version="1.0" encoding="utf-8"?>
<!-- Generator: Adobe Illustrator 18.1.1, SVG Export Plug-In . SVG Version: 6.00 Build 0)  -->
<!DOCTYPE svg PUBLIC "-//W3C//DTD SVG 1.1//EN" "http://www.w3.org/Graphics/SVG/1.1/DTD/svg11.dtd">
<svg version="1.1" id="Layer_1" xmlns="http://www.w3.org/2000/svg" xmlns:xlink="http://www.w3.org/1999/xlink" x="0px" y="0px"
	 viewBox="279.5 62 672 670" enable-background="new 279.5 62 672 670" xml:space="preserve">
<path fill="#BFBFBF" d="M617,721c-178.7,0-325-146.2-325-325S438.2,71,617,71s325,146.2,325,325S795.7,721,617,721z M617,109
	c-157,0-287,130-287,287s130,287.1,287,287.1S904,553,904,396S774,109,617,109z"/>
<g>
	<path fill="#BFBFBF" d="M536.8,510.6c40.3-38.6,85.3-79.3,125.3-120c-39.8-37-87.6-81.3-125.9-119.4c9.2-9.3,19.6-21.1,28.8-30.5
		c51.7,46.2,103.5,92.4,165.6,147.8c-59.2,55.3-111.3,103.9-163.3,152.3C556.9,531,546.9,520.7,536.8,510.6z"/>
</g>
</svg>
