<?xml version="1.0" encoding="utf-8"?>
<!-- Generator: Adobe Illustrator 18.1.1, SVG Export Plug-In . SVG Version: 6.00 Build 0)  -->
<!DOCTYPE svg PUBLIC "-//W3C//DTD SVG 1.1//EN" "http://www.w3.org/Graphics/SVG/1.1/DTD/svg11.dtd">
<svg version="1.1" id="Layer_1" xmlns="http://www.w3.org/2000/svg" xmlns:xlink="http://www.w3.org/1999/xlink" x="0px" y="0px"
	 viewBox="279.5 62 672 670" enable-background="new 279.5 62 672 670" xml:space="preserve">
<path fill="#BFBFBF" d="M617,721c-178.7,0-325-146.2-325-325S438.2,71,617,71s325,146.2,325,325S795.7,721,617,721z M617,109
	c-157,0-287,130-287,287s130,287.1,287,287.1S904,553,904,396S774,109,617,109z"/>
<g>
	<path fill="#BFBFBF" d="M720.8,291.3c-33.6,32.2-71.1,66.1-104.4,100c33.2,30.9,73,67.7,104.9,99.5c-7.7,7.8-16.3,17.6-24,25.4
		c-43.1-38.5-86.2-77-138-123.2c49.4-46.1,92.8-86.6,136.1-126.9C704.1,274.3,712.4,282.9,720.8,291.3z"/>
	<rect x="499.4" y="265.8" fill="#BFBFBF" width="38.3" height="247.3"/>
</g>
</svg>
